{"title":"The.Human.Centipede.II.Full.Sequence.2011.VODRiP.XviD-SiC","uid":6780153,"size":1508468532,"categoryP":"video","categoryS":"movies","magnet":"?xt=urn:btih:7f6dcd93ec05d360ec06828b1099e57ac022c54a&amp;dn=The.Human.Centipede.II.Full.Sequence.2011.VODRiP.XviD-SiC&amp;tr=udp%3A%2F%2Ftracker.openbittorrent.com%3A80&amp;tr=udp%3A%2F%2Fopen.demonii.com%3A1337&amp;tr=udp%3A%2F%2Ftracker.coppersurfer.tk%3A6969&amp;tr=udp%3A%2F%2Fexodus.desync.com%3A6969","seeders":3,"leechers":1,"uploader":"SAFCukO09","files":4,"time":1319877138,"description":"\nIMDB Link: &lt;a href=&quot;\nhttp://www.imdb.com/title/tt1530509/&quot; rel=&quot;nofollow&quot; target=&quot;_NEW&quot;&gt;\nhttp://www.imdb.com/title/tt1530509/&lt;/a&gt;\n\nDescription:\nMartin is a mentally disturbed loner who lives with his mother in a bleak housing project. He works the night shift as a security guard in an equally grim and foreboding underground parking complex. To escape his dreary existence, Martin loses himself in the fantasy world of the cult horror film The Human Centipede (First Sequence), fetishizing the meticulous surgical skills of the gifted Dr. Heiter, whose knowledge of the human gastrointestinal system inspires Martin to attempt the unthinkable.\n\nMediaInfo:\nGeneral\nComplete name : EThe.Human.Centipede.II.Full.Sequence.2011.VODRiP.XviD-SiC.avi\nFormat : AVI\nFormat/Info : Audio Video Interleave\nFile size : 1.37 GiB\nDuration : 1h 28mn\nOverall bit rate : 2 226 Kbps\n\nVideo\nID : 0\nFormat : MPEG-4 Visual\nFormat profile : Advanced Simple@L5\nFormat settings, BVOP : 1\nFormat settings, QPel : No\nFormat settings, GMC : No warppoints\nFormat settings, Matrix : Default (H.263)\nCodec ID : XVID\nCodec ID/Hint : XviD\nDuration : 1h 28mn\nBit rate : 1 770 Kbps\nWidth : 720 pixels\nHeight : 400 pixels\nDisplay aspect ratio : 16:9\nFrame rate : 25.000 fps\nColor space : YUV\nChroma subsampling : 4:2:0\nBit depth : 8 bits\nScan type : Progressive\nCompression mode : Lossy\nBits/(Pixel*Frame) : 0.246\nStream size : 1.09 GiB (80%)\nWriting library : XviD 1.2.1 (UTC 2008-12-04)\n\nAudio\nID : 1\nFormat : AC-3\nFormat/Info : Audio Coding 3\nCodec ID : 2000\nDuration : 1h 28mn\nBit rate mode : Constant\nBit rate : 448 Kbps\nChannel(s) : 2 channels\nSampling rate : 44.1 KHz\nCompression mode : Lossy\nStream size : 282 MiB (20%)\nAlignment : Split accross interleaves\nInterleave, duration : 70 ms (1.74 video frames)\nInterleave, preload duration : 209 ms\nTitle : HC2_track_1\n","torrent":{"xt":"urn:btih:7f6dcd93ec05d360ec06828b1099e57ac022c54a","amp;dn":"The.Human.Centipede.II.Full.Sequence.2011.VODRiP.XviD-SiC","amp;tr":["udp%3A%2F%2Ftracker.openbittorrent.com%3A80","udp%3A%2F%2Fopen.demonii.com%3A1337","udp%3A%2F%2Ftracker.coppersurfer.tk%3A6969","udp%3A%2F%2Fexodus.desync.com%3A6969"],"infoHash":"7f6dcd93ec05d360ec06828b1099e57ac022c54a","infoHashBuffer":{"type":"Buffer","data":[127,109,205,147,236,5,211,96,236,6,130,139,16,153,229,122,192,34,197,74]},"announce":[],"urlList":[]}}